Coordinates
version=1
nRows=18
nColumns=22
inDegrees=yes

Units are S.I. units (second, meters, Newtons, ...)
If the header above contains a line with 'inDegrees', this indicates whether rotational values are in degrees (yes) or radians (no).

endheader
time	pelvis_tilt	pelvis_list	pelvis_rotation	pelvis_tx	pelvis_ty	pelvis_tz	hip_flexion_r	hip_adduction_r	hip_rotation_r	knee_angle_r	ankle_angle_r	subtalar_angle_r	hip_flexion_l	hip_adduction_l	hip_rotation_l	knee_angle_l	ankle_angle_l	subtalar_angle_l	lumbar_extension	lumbar_bending	lumbar_rotation
      5.42000000	      3.79695086	     -0.16274469	    -26.28168680	      0.48587483	      0.88559422	      0.27421829	    -11.26911542	      0.98764125	     -5.66936388	    -15.33831566	     25.13713361	     -7.74401712	     20.31270278	     -2.56269815	     -8.95798047	    -20.74358163	      6.21856706	     -1.07797957	     -9.05801612	     -4.28151831	      4.25466031
      5.43000000	      3.86040461	     -0.02647246	    -26.35632443	      0.49076594	      0.88581446	      0.27449015	    -11.51613294	      0.68411946	     -5.76925482	    -15.44752389	     25.08248659	     -7.75099871	     20.15362589	     -2.40079104	     -9.50945558	    -20.99571314	      6.01626232	     -1.31422584	     -8.98757784	     -4.50592088	      4.18939861
      5.44000000	      3.95927995	      0.12321015	    -26.40888319	      0.49575705	      0.88618522	      0.27474389	    -11.78270824	      0.35766017	     -5.87695781	    -15.58223920	     25.01253703	     -7.75567098	     19.93476070	     -2.20506873	    -10.05441069	    -21.20686799	      5.89760858	     -1.56856326	     -8.93533606	     -4.76804887	      4.07557633
      5.45000000	      4.06033663	      0.27112847	    -26.43495663	      0.50081072	      0.88664042	      0.27495397	    -12.01191664	      0.03182424	     -6.03358029	    -15.79704715	     24.91403847	     -7.77034596	     19.71139149	     -2.00459064	    -10.56175216	    -21.42801983	      5.82605746	     -1.75323238	     -8.88148874	     -5.03675878	      3.97108714
      5.46000000	      4.17735365	      0.41964591	    -26.44756437	      0.50594203	      0.88719819	      0.27513668	    -12.22042378	     -0.30321026	     -6.19542673	    -16.08492900	     24.78679361	     -7.78366546	     19.44637632	     -1.78626973	    -11.03938873	    -21.61710187	      5.80277814	     -1.90114973	     -8.83412892	     -5.32043421	      3.87065603
      5.47000000	      4.30105647	      0.57020038	    -26.45420342	      0.51114655	      0.88782967	      0.27528251	    -12.38784177	     -0.64881892	     -6.34585378	    -16.46426259	     24.63053866	     -7.79471191	     19.14513742	     -1.54805958	    -11.48154620	    -21.76367109	      5.81795096	     -2.00976969	     -8.78251496	     -5.61344602	      3.78453989
      5.48000000	      4.43629383	      0.71722517	    -26.47265114	      0.51641285	      0.88853866	      0.27543562	    -12.51870710	     -1.00492015	     -6.46560384	    -16.93703320	     24.44070548	     -7.79498424	     18.78579774	     -1.29372442	    -11.89181053	    -21.84309037	      5.85603230	     -2.10263653	     -8.72976926	     -5.91883124	      3.71556662
      5.49000000	      4.56785685	      0.86432674	    -26.50347895	      0.52173472	      0.88928149	      0.27554953	    -12.58584410	     -1.37139093	     -6.55108750	    -17.51910421	     24.21560908	     -7.79405926	     18.39348856	     -1.01781109	    -12.26256658	    -21.86436011	      5.91821512	     -2.17409411	     -8.66195973	     -6.22364002	      3.67225013
      5.50000000	      4.68252725	      1.02097230	    -26.54484579	      0.52710349	      0.89001617	      0.27563607	    -12.57535747	     -1.74879320	     -6.59996067	    -18.20237248	     23.94873660	     -7.80945605	     17.99776044	     -0.71705011	    -12.57778368	    -21.84728137	      6.01488209	     -2.22074166	     -8.55729815	     -6.53603146	      3.65734018
      5.51000000	      4.79876911	      1.17078154	    -26.61765210	      0.53251487	      0.89079118	      0.27572646	    -12.50317608	     -2.13526256	     -6.60481882	    -18.99897846	     23.67581125	     -7.82297847	     17.53522806	     -0.39705730	    -12.87123187	    -21.72004441	      6.10656654	     -2.28228642	     -8.44000258	     -6.84319465	      3.65890389
      5.52000000	      4.93494298	      1.31564605	    -26.71852599	      0.53792096	      0.89159210	      0.27579690	    -12.38566716	     -2.54048533	     -6.56937958	    -19.90490348	     23.38633587	     -7.83065969	     17.03928738	     -0.04953246	    -13.10816627	    -21.57067642	      6.19165961	     -2.38144950	     -8.34043865	     -7.16130573	      3.71912107
      5.53000000	      5.03672702	      1.46612320	    -26.82724056	      0.54338574	      0.89235090	      0.27586460	    -12.18916913	     -2.94015876	     -6.51647557	    -20.88017947	     23.05981565	     -7.86079777	     16.55092447	      0.31369491	    -13.29387409	    -21.36759470	      6.31669365	     -2.48466770	     -8.18161813	     -7.46721350	      3.77186947
      5.54000000	      5.13129054	      1.60496779	    -26.95604494	      0.54885336	      0.89310382	      0.27594916	    -11.94039254	     -3.33381524	     -6.44783722	    -21.93110663	     22.70506863	     -7.90595644	     16.05086903	      0.67927664	    -13.43543891	    -21.13480442	      6.44863682	     -2.61891355	     -8.00887461	     -7.76081767	      3.85407877
      5.55000000	      5.21081851	      1.73117869	    -27.09442663	      0.55433320	      0.89383510	      0.27605587	    -11.64608798	     -3.71237389	     -6.37403081	    -23.03123251	     22.30494924	     -7.97201777	     15.55682214	      1.03858603	    -13.53013443	    -20.89471725	      6.60360174	     -2.75896735	     -7.81510178	     -8.03372684	      3.94793451
      5.56000000	      5.26212928	      1.81359349	    -27.22608097	      0.55984901	      0.89455525	      0.27619151	    -11.33294655	     -4.03770450	     -6.33331057	    -24.13714321	     21.79731460	     -8.06187233	     15.07068333	      1.35353862	    -13.55560508	    -20.65755503	      6.80607735	     -2.85394174	     -7.60046792	     -8.24461333	      4.03935166
      5.57000000	      5.34032387	      1.90668870	    -27.39269394	      0.56529084	      0.89526430	      0.27635853	    -10.98063062	     -4.39472493	     -6.24234562	    -25.32278914	     21.34087145	     -8.16088417	     14.58839120	      1.67957865	    -13.62122192	    -20.46002818	      6.95130267	     -3.02403270	     -7.41266058	     -8.48476009	      4.17590158
      5.58000000	      5.39636490	      1.94822648	    -27.53520471	      0.57078200	      0.89596878	      0.27653072	    -10.63718238	     -4.69260183	     -6.20104516	    -26.48115308	     20.74751017	     -8.27977717	     14.11747179	      1.94953828	    -13.62512581	    -20.29436132	      7.15325869	     -3.13983960	     -7.22070373	     -8.65133869	      4.29226747
      5.59000000	      5.45113159	      1.96480241	    -27.66795050	      0.57627962	      0.89666911	      0.27669755	    -10.29191611	     -4.97105310	     -6.18138010	    -27.63971477	     20.07850690	     -8.40539900	     13.65545915	      2.18983183	    -13.61504892	    -20.16600548	      7.36173128	     -3.21126270	     -7.03968956	     -8.78173244	      4.40044777
